# xmcd
#
# Track frame offsets:
#	150
#	13968
#	28194
#	45861
#	62425
#	81070
#	94067
#	113176
#	129491
#	144522
#	158844
#	171674
#	188314
#
# Disc length: 2688 seconds
#
# Revision: 1
# Processed by: cddbd v1.5.2PL0 Copyright (c) Steve Scherf et al.
# Submitted via: audiograbber 1.83.01
#
DISCID=a20a7e0d
DTITLE=Smurffit - Leffa Boogie - Vol.19
DYEAR=2011
DGENRE=Pop
TTITLE0=Sieltä Tulee Smurffi (Taivas Varjele!)
TTITLE1=Filmeissä Näissä (Häissä)
TTITLE2=Smurffimaan Toisella Puolen (Maailman Toisella Puolen)
TTITLE3=Leffaletka (Reggaerekka)
TTITLE4=Liisteriä (Hysteria)
TTITLE5=Smurffi Saunoo (Poika Saunoo)
TTITLE6=Tämä On Soppa (Tämä On Totta)
TTITLE7=Tarkastaja (Pelastaja)
TTITLE8=Näytä Välkky Se (Things Are Going On)
TTITLE9=Hölösuu (Chatterbox)
TTITLE10=Sä Oot Smurffi, Mä Oon Smurffi (Good 'n Smurfy)
TTITLE11=Smurffimeininki (In A Smurfery Mood)
TTITLE12=Smurffien Maailmaan (In Our Smurfery World)
EXTD=TR.
EXTT0=
EXTT1=
EXTT2=
EXTT3=
EXTT4=
EXTT5=
EXTT6=
EXTT7=
EXTT8=
EXTT9=
EXTT10=
EXTT11=
EXTT12=
PLAYORDER=
